<svg xmlns="http://www.w3.org/2000/svg" xmlns:xlink="http://www.w3.org/1999/xlink" width="300" zoomAndPan="magnify" viewBox="0 0 224.87999 89.999999" height="120" preserveAspectRatio="xMidYMid meet" version="1.0"><defs><filter x="0%" y="0%" width="100%" height="100%" id="45a58e191d"><feColorMatrix values="0 0 0 0 1 0 0 0 0 1 0 0 0 0 1 0 0 0 1 0" color-interpolation-filters="sRGB"/></filter><g/><clipPath id="f346d7a65a"><path d="M 0 0.0234375 L 224.761719 0.0234375 L 224.761719 89.976562 L 0 89.976562 Z M 0 0.0234375 " clip-rule="nonzero"/></clipPath><mask id="12bf888372"><g filter="url(#45a58e191d)"><rect x="-22.487999" width="269.855988" fill="#000000" y="-9" height="107.999999" fill-opacity="0.38"/></g></mask><clipPath id="46e7d3ac2a"><path d="M 43 0.4375 L 86.953125 0.4375 L 86.953125 68 L 43 68 Z M 43 0.4375 " clip-rule="nonzero"/></clipPath><clipPath id="0b2b7851b5"><path d="M 0 20 L 44 20 L 44 85.578125 L 0 85.578125 Z M 0 20 " clip-rule="nonzero"/></clipPath><clipPath id="52c0889e8e"><rect x="0" width="88" y="0" height="86"/></clipPath></defs><g clip-path="url(#f346d7a65a)"><path fill="#ffffff" d="M 0 0.0234375 L 224.878906 0.0234375 L 224.878906 89.976562 L 0 89.976562 Z M 0 0.0234375 " fill-opacity="1" fill-rule="nonzero"/><path fill="#ffffff" d="M 0 0.0234375 L 224.878906 0.0234375 L 224.878906 89.976562 L 0 89.976562 Z M 0 0.0234375 " fill-opacity="1" fill-rule="nonzero"/></g><g fill="#aa39de" fill-opacity="1"><g transform="translate(10.271066, 67.051132)"><g><path d="M 3.691406 0 L 14.589844 0 L 14.589844 -46.324219 L 3.691406 -46.324219 Z M 29.710938 -42.191406 C 33.136719 -38.585938 33.839844 -35.597656 33.839844 -35.597656 L 33.839844 -46.324219 L 23.03125 -46.324219 C 23.03125 -46.324219 26.371094 -45.707031 29.710938 -42.191406 Z M 25.929688 -30.675781 C 25.929688 -30.675781 25.402344 -28.304688 22.765625 -25.578125 C 20.566406 -23.207031 18.371094 -22.328125 17.753906 -22.328125 C 18.371094 -22.328125 20.566406 -21.449219 22.765625 -19.074219 C 25.402344 -16.347656 25.929688 -13.976562 25.929688 -13.976562 Z M 30.851562 -4.921875 C 26.984375 -0.703125 23.03125 0 23.03125 0 L 35.773438 0 L 35.773438 -12.65625 C 35.773438 -12.65625 34.808594 -9.054688 30.851562 -4.921875 Z M 30.851562 -4.921875 "/></g></g></g><g fill="#aa39de" fill-opacity="1"><g transform="translate(40.946851, 67.051132)"><g><path d="M 25.316406 0 L 38.148438 0 L 18.371094 -47.378906 L 12.480469 -31.378906 Z M 25.316406 0 "/></g></g></g><g fill="#aa39de" fill-opacity="1"><g transform="translate(88.74379, 40.5024)"><g><path d="M 5.515625 -9.359375 L 5.515625 -7.78125 L 2.5 -7.78125 L 2.5 -5.71875 L 5.40625 -5.71875 L 5.40625 -4.125 L 2.5 -4.125 L 2.5 -1.59375 L 5.515625 -1.59375 L 5.515625 0 L 0.671875 0 L 0.671875 -9.359375 Z M 5.515625 -9.359375 "/></g></g></g><g fill="#aa39de" fill-opacity="1"><g transform="translate(97.90811, 40.5024)"><g><path d="M 1.984375 -9.609375 L 6.921875 -3.0625 L 6.9375 -3.0625 L 6.9375 -9.359375 L 8.765625 -9.359375 L 8.765625 0.1875 L 7.453125 0.1875 L 2.515625 -6.359375 L 2.5 -6.359375 L 2.5 0 L 0.671875 0 L 0.671875 -9.609375 Z M 1.984375 -9.609375 "/></g></g></g><g fill="#aa39de" fill-opacity="1"><g transform="translate(110.436948, 40.5024)"><g><path d="M 5.609375 -9.359375 L 5.609375 -7.78125 L 3.71875 -7.78125 L 3.71875 0 L 1.890625 0 L 1.890625 -7.78125 L 0 -7.78125 L 0 -9.359375 Z M 5.609375 -9.359375 "/></g></g></g><g fill="#aa39de" fill-opacity="1"><g transform="translate(119.141894, 40.5024)"><g><path d="M 5.515625 -9.359375 L 5.515625 -7.78125 L 2.5 -7.78125 L 2.5 -5.71875 L 5.40625 -5.71875 L 5.40625 -4.125 L 2.5 -4.125 L 2.5 -1.59375 L 5.515625 -1.59375 L 5.515625 0 L 0.671875 0 L 0.671875 -9.359375 Z M 5.515625 -9.359375 "/></g></g></g><g fill="#aa39de" fill-opacity="1"><g transform="translate(128.306216, 40.5024)"><g><path d="M 3.1875 -9.359375 C 4.175781 -9.359375 4.9375 -9.113281 5.46875 -8.625 C 6 -8.144531 6.265625 -7.453125 6.265625 -6.546875 C 6.265625 -5.878906 6.082031 -5.300781 5.71875 -4.8125 C 5.363281 -4.320312 4.910156 -4.035156 4.359375 -3.953125 L 7 0 L 4.796875 0 L 2.515625 -3.78125 L 2.5 -3.78125 L 2.5 0 L 0.671875 0 L 0.671875 -9.359375 Z M 2.5 -5.0625 L 2.703125 -5.0625 C 3.328125 -5.0625 3.773438 -5.175781 4.046875 -5.40625 C 4.316406 -5.632812 4.453125 -6 4.453125 -6.5 C 4.453125 -6.988281 4.316406 -7.335938 4.046875 -7.546875 C 3.785156 -7.765625 3.34375 -7.875 2.71875 -7.875 L 2.5 -7.875 Z M 2.5 -5.0625 "/></g></g></g><g fill="#aa39de" fill-opacity="1"><g transform="translate(138.339595, 40.5024)"><g><path d="M 5.609375 -9.359375 L 5.609375 -7.78125 L 3.71875 -7.78125 L 3.71875 0 L 1.890625 0 L 1.890625 -7.78125 L 0 -7.78125 L 0 -9.359375 Z M 5.609375 -9.359375 "/></g></g></g><g fill="#aa39de" fill-opacity="1"><g transform="translate(147.044544, 40.5024)"><g><path d="M 4.953125 -9.609375 L 8.515625 0 L 6.5625 0 L 5.84375 -1.96875 L 2.578125 -1.96875 L 1.8125 0 L -0.109375 0 L 3.546875 -9.609375 Z M 3.109375 -3.46875 L 5.328125 -3.46875 L 4.15625 -6.875 L 4.140625 -6.875 Z M 3.109375 -3.46875 "/></g></g></g><g fill="#aa39de" fill-opacity="1"><g transform="translate(158.542924, 40.5024)"><g><path d="M 2.5 -9.359375 L 2.5 0 L 0.671875 0 L 0.671875 -9.359375 Z M 2.5 -9.359375 "/></g></g></g><g fill="#aa39de" fill-opacity="1"><g transform="translate(164.802077, 40.5024)"><g><path d="M 1.984375 -9.609375 L 6.921875 -3.0625 L 6.9375 -3.0625 L 6.9375 -9.359375 L 8.765625 -9.359375 L 8.765625 0.1875 L 7.453125 0.1875 L 2.515625 -6.359375 L 2.5 -6.359375 L 2.5 0 L 0.671875 0 L 0.671875 -9.609375 Z M 1.984375 -9.609375 "/></g></g></g><g fill="#aa39de" fill-opacity="1"><g transform="translate(177.330916, 40.5024)"><g><path d="M 3 -9.609375 L 5.3125 -3.4375 L 7.53125 -9.609375 L 8.84375 -9.609375 L 10.25 0 L 8.40625 0 L 7.671875 -5.8125 L 7.640625 -5.8125 L 5.515625 0.125 L 4.875 0.125 L 2.828125 -5.8125 L 2.8125 -5.8125 L 1.96875 0 L 0.140625 0 L 1.71875 -9.609375 Z M 3 -9.609375 "/></g></g></g><g fill="#aa39de" fill-opacity="1"><g transform="translate(190.815726, 40.5024)"><g><path d="M 5.515625 -9.359375 L 5.515625 -7.78125 L 2.5 -7.78125 L 2.5 -5.71875 L 5.40625 -5.71875 L 5.40625 -4.125 L 2.5 -4.125 L 2.5 -1.59375 L 5.515625 -1.59375 L 5.515625 0 L 0.671875 0 L 0.671875 -9.359375 Z M 5.515625 -9.359375 "/></g></g></g><g fill="#aa39de" fill-opacity="1"><g transform="translate(199.980047, 40.5024)"><g><path d="M 1.984375 -9.609375 L 6.921875 -3.0625 L 6.9375 -3.0625 L 6.9375 -9.359375 L 8.765625 -9.359375 L 8.765625 0.1875 L 7.453125 0.1875 L 2.515625 -6.359375 L 2.5 -6.359375 L 2.5 0 L 0.671875 0 L 0.671875 -9.609375 Z M 1.984375 -9.609375 "/></g></g></g><g fill="#aa39de" fill-opacity="1"><g transform="translate(212.508887, 40.5024)"><g><path d="M 5.609375 -9.359375 L 5.609375 -7.78125 L 3.71875 -7.78125 L 3.71875 0 L 1.890625 0 L 1.890625 -7.78125 L 0 -7.78125 L 0 -9.359375 Z M 5.609375 -9.359375 "/></g></g></g><g fill="#aa39de" fill-opacity="1"><g transform="translate(121.761325, 57.743199)"><g><path d="M 4.953125 -9.609375 L 8.515625 0 L 6.5625 0 L 5.84375 -1.96875 L 2.578125 -1.96875 L 1.8125 0 L -0.109375 0 L 3.546875 -9.609375 Z M 3.109375 -3.46875 L 5.328125 -3.46875 L 4.15625 -6.875 L 4.140625 -6.875 Z M 3.109375 -3.46875 "/></g></g></g><g fill="#aa39de" fill-opacity="1"><g transform="translate(133.259703, 57.743199)"><g><path d="M 6.875 -6.515625 C 6.6875 -6.929688 6.40625 -7.28125 6.03125 -7.5625 C 5.65625 -7.851562 5.226562 -8 4.75 -8 C 4.21875 -8 3.75 -7.832031 3.34375 -7.5 C 2.9375 -7.175781 2.628906 -6.757812 2.421875 -6.25 C 2.210938 -5.75 2.109375 -5.210938 2.109375 -4.640625 C 2.109375 -3.734375 2.359375 -2.957031 2.859375 -2.3125 C 3.359375 -1.675781 3.988281 -1.359375 4.75 -1.359375 C 5.320312 -1.359375 5.8125 -1.5625 6.21875 -1.96875 C 6.632812 -2.382812 6.859375 -2.890625 6.890625 -3.484375 L 4.90625 -3.484375 L 4.90625 -4.984375 L 8.9375 -4.984375 L 8.9375 -4.71875 C 8.9375 -3.75 8.765625 -2.890625 8.421875 -2.140625 C 8.085938 -1.390625 7.597656 -0.800781 6.953125 -0.375 C 6.316406 0.0390625 5.5625 0.25 4.6875 0.25 C 3.820312 0.25 3.046875 0.03125 2.359375 -0.40625 C 1.679688 -0.851562 1.15625 -1.445312 0.78125 -2.1875 C 0.40625 -2.9375 0.21875 -3.753906 0.21875 -4.640625 C 0.21875 -5.566406 0.410156 -6.40625 0.796875 -7.15625 C 1.179688 -7.90625 1.722656 -8.5 2.421875 -8.9375 C 3.128906 -9.382812 3.921875 -9.609375 4.796875 -9.609375 C 5.597656 -9.609375 6.316406 -9.414062 6.953125 -9.03125 C 7.597656 -8.65625 8.113281 -8.101562 8.5 -7.375 Z M 6.875 -6.515625 "/></g></g></g><g fill="#aa39de" fill-opacity="1"><g transform="translate(145.540234, 57.743199)"><g><path d="M 5.515625 -9.359375 L 5.515625 -7.78125 L 2.5 -7.78125 L 2.5 -5.71875 L 5.40625 -5.71875 L 5.40625 -4.125 L 2.5 -4.125 L 2.5 -1.59375 L 5.515625 -1.59375 L 5.515625 0 L 0.671875 0 L 0.671875 -9.359375 Z M 5.515625 -9.359375 "/></g></g></g><g fill="#aa39de" fill-opacity="1"><g transform="translate(154.704553, 57.743199)"><g><path d="M 1.984375 -9.609375 L 6.921875 -3.0625 L 6.9375 -3.0625 L 6.9375 -9.359375 L 8.765625 -9.359375 L 8.765625 0.1875 L 7.453125 0.1875 L 2.515625 -6.359375 L 2.5 -6.359375 L 2.5 0 L 0.671875 0 L 0.671875 -9.609375 Z M 1.984375 -9.609375 "/></g></g></g><g fill="#aa39de" fill-opacity="1"><g transform="translate(167.233392, 57.743199)"><g><path d="M 6.9375 -6.875 C 6.675781 -7.195312 6.359375 -7.441406 5.984375 -7.609375 C 5.617188 -7.785156 5.25 -7.875 4.875 -7.875 C 4.070312 -7.875 3.410156 -7.554688 2.890625 -6.921875 C 2.367188 -6.296875 2.109375 -5.535156 2.109375 -4.640625 C 2.109375 -3.765625 2.375 -3.019531 2.90625 -2.40625 C 3.4375 -1.789062 4.085938 -1.484375 4.859375 -1.484375 C 5.253906 -1.484375 5.632812 -1.578125 6 -1.765625 C 6.363281 -1.953125 6.675781 -2.191406 6.9375 -2.484375 L 6.9375 -0.3125 C 6.582031 -0.144531 6.234375 -0.0078125 5.890625 0.09375 C 5.546875 0.195312 5.1875 0.25 4.8125 0.25 C 3.976562 0.25 3.210938 0.0390625 2.515625 -0.375 C 1.828125 -0.800781 1.269531 -1.394531 0.84375 -2.15625 C 0.425781 -2.914062 0.21875 -3.734375 0.21875 -4.609375 C 0.21875 -5.515625 0.421875 -6.351562 0.828125 -7.125 C 1.234375 -7.90625 1.789062 -8.515625 2.5 -8.953125 C 3.207031 -9.390625 3.988281 -9.609375 4.84375 -9.609375 C 5.21875 -9.609375 5.578125 -9.5625 5.921875 -9.46875 C 6.273438 -9.375 6.613281 -9.238281 6.9375 -9.0625 Z M 6.9375 -6.875 "/></g></g></g><g fill="#aa39de" fill-opacity="1"><g transform="translate(177.800629, 57.743199)"><g><path d="M 1.921875 -9.359375 L 3.5625 -6.109375 L 5.359375 -9.359375 L 7.484375 -9.359375 L 4.53125 -4.296875 L 4.53125 0 L 2.703125 0 L 2.703125 -4.296875 L -0.203125 -9.359375 Z M 1.921875 -9.359375 "/></g></g></g><g mask="url(#12bf888372)"><g transform="matrix(1, 0, 0, 1, 0, 2)"><g clip-path="url(#52c0889e8e)"><g clip-path="url(#46e7d3ac2a)"><path fill="#d6a5ec" d="M 43.421875 0.472656 L 44.148438 0.464844 L 44.511719 0.464844 L 44.878906 0.46875 L 45.605469 0.484375 L 46.695312 0.53125 L 47.058594 0.558594 L 47.785156 0.609375 L 48.875 0.714844 L 49.234375 0.757812 C 49.476562 0.789062 49.71875 0.816406 49.960938 0.847656 L 50.679688 0.953125 C 50.800781 0.972656 50.921875 0.988281 51.039062 1.011719 L 51.398438 1.074219 L 51.761719 1.136719 C 51.878906 1.15625 52 1.175781 52.121094 1.199219 C 52.597656 1.296875 53.074219 1.386719 53.550781 1.5 L 53.90625 1.578125 L 54.082031 1.617188 L 54.261719 1.664062 L 54.96875 1.839844 C 58.769531 2.84375 62.363281 4.34375 65.746094 6.335938 C 66.164062 6.589844 66.585938 6.839844 66.996094 7.109375 C 67.414062 7.367188 67.816406 7.644531 68.222656 7.917969 C 68.425781 8.054688 68.621094 8.199219 68.824219 8.339844 L 69.121094 8.550781 L 69.417969 8.769531 C 69.613281 8.917969 69.8125 9.0625 70.007812 9.210938 L 70.585938 9.664062 C 71.351562 10.273438 72.101562 10.90625 72.824219 11.570312 L 73.097656 11.816406 C 73.1875 11.902344 73.273438 11.984375 73.363281 12.070312 L 73.898438 12.578125 C 74.242188 12.925781 74.597656 13.269531 74.929688 13.628906 C 77.667969 16.488281 79.960938 19.667969 81.816406 23.164062 C 83.660156 26.644531 85.070312 30.371094 85.929688 34.234375 L 86.082031 34.960938 L 86.15625 35.324219 L 86.222656 35.691406 L 86.347656 36.421875 L 86.460938 37.15625 C 86.476562 37.277344 86.5 37.398438 86.511719 37.523438 L 86.558594 37.890625 C 86.585938 38.136719 86.617188 38.382812 86.644531 38.628906 L 86.714844 39.367188 C 86.722656 39.492188 86.738281 39.613281 86.746094 39.738281 L 86.769531 40.109375 C 86.785156 40.355469 86.800781 40.601562 86.8125 40.847656 L 86.839844 41.589844 C 86.84375 41.714844 86.851562 41.835938 86.851562 41.960938 L 86.855469 42.332031 C 86.855469 42.582031 86.859375 42.828125 86.855469 43.074219 C 86.847656 44.066406 86.800781 45.054688 86.71875 46.039062 C 86.636719 47.023438 86.519531 48.007812 86.367188 48.984375 C 86.210938 49.960938 86.023438 50.929688 85.796875 51.890625 C 85.570312 52.851562 85.316406 53.804688 85.019531 54.746094 L 84.789062 55.449219 C 84.75 55.566406 84.710938 55.683594 84.671875 55.800781 L 84.546875 56.148438 L 84.488281 56.324219 L 84.421875 56.496094 L 84.292969 56.84375 C 84.210938 57.074219 84.117188 57.300781 84.027344 57.53125 C 83.304688 59.355469 82.445312 61.117188 81.453125 62.816406 C 80.957031 63.660156 80.429688 64.480469 79.875 65.285156 C 79.316406 66.085938 78.730469 66.863281 78.109375 67.609375 L 77.949219 67.496094 C 78.449219 66.667969 78.929688 65.832031 79.382812 64.980469 C 79.835938 64.132812 80.261719 63.273438 80.664062 62.402344 C 81.464844 60.667969 82.15625 58.886719 82.734375 57.066406 C 82.808594 56.839844 82.878906 56.613281 82.945312 56.382812 L 83.046875 56.042969 L 83.097656 55.871094 L 83.144531 55.699219 C 83.207031 55.46875 83.277344 55.242188 83.335938 55.011719 L 83.515625 54.324219 C 83.742188 53.402344 83.945312 52.472656 84.113281 51.542969 C 84.285156 50.609375 84.429688 49.671875 84.539062 48.730469 L 84.617188 48.027344 C 84.640625 47.792969 84.660156 47.554688 84.679688 47.320312 L 84.699219 47.144531 L 84.710938 46.96875 L 84.738281 46.613281 C 84.742188 46.496094 84.753906 46.378906 84.761719 46.257812 L 84.78125 45.90625 L 84.800781 45.550781 C 84.804688 45.433594 84.808594 45.316406 84.8125 45.199219 L 84.828125 44.84375 L 84.832031 44.667969 L 84.835938 44.488281 L 84.847656 43.78125 L 84.847656 43.070312 C 84.835938 42.128906 84.816406 41.183594 84.746094 40.242188 L 84.726562 39.886719 C 84.71875 39.769531 84.707031 39.652344 84.695312 39.535156 L 84.636719 38.828125 C 84.628906 38.710938 84.613281 38.59375 84.597656 38.476562 L 84.519531 37.773438 C 84.507812 37.65625 84.492188 37.539062 84.476562 37.421875 L 84.382812 36.71875 L 84.285156 36.015625 L 84.230469 35.667969 L 84.167969 35.316406 L 84.046875 34.617188 C 83.695312 32.753906 83.21875 30.925781 82.621094 29.125 C 82.476562 28.675781 82.308594 28.234375 82.148438 27.785156 C 82.0625 27.5625 81.976562 27.34375 81.890625 27.121094 L 81.761719 26.789062 L 81.625 26.464844 C 81.265625 25.585938 80.859375 24.726562 80.4375 23.875 C 77.023438 17.089844 71.710938 11.246094 65.238281 7.164062 C 63.617188 6.140625 61.933594 5.234375 60.1875 4.441406 L 59.863281 4.292969 C 59.753906 4.242188 59.640625 4.199219 59.53125 4.148438 L 58.871094 3.867188 L 58.203125 3.601562 L 57.871094 3.46875 L 57.53125 3.34375 C 57.308594 3.261719 57.082031 3.175781 56.855469 3.09375 L 56.175781 2.863281 C 55.949219 2.78125 55.71875 2.710938 55.492188 2.640625 L 54.976562 2.476562 C 54.917969 2.460938 54.859375 2.445312 54.804688 2.425781 L 54.113281 2.226562 L 53.9375 2.179688 L 53.765625 2.132812 L 53.414062 2.042969 C 52.949219 1.914062 52.480469 1.8125 52.015625 1.699219 C 51.898438 1.671875 51.78125 1.648438 51.664062 1.621094 L 51.308594 1.550781 L 50.957031 1.476562 C 50.839844 1.453125 50.71875 1.433594 50.601562 1.410156 L 49.890625 1.28125 C 49.65625 1.242188 49.417969 1.203125 49.179688 1.164062 L 48.824219 1.109375 L 48.464844 1.0625 L 47.75 0.964844 L 47.03125 0.886719 L 46.671875 0.851562 L 46.3125 0.824219 L 45.589844 0.761719 L 44.867188 0.722656 L 44.507812 0.703125 L 44.144531 0.691406 L 43.421875 0.667969 Z M 43.421875 0.472656 " fill-opacity="1" fill-rule="nonzero"/></g><g clip-path="url(#0b2b7851b5)"><path fill="#d6a5ec" d="M 43.421875 85.527344 L 42.714844 85.53125 L 42.359375 85.535156 C 42.242188 85.535156 42.125 85.53125 42.003906 85.53125 L 41.296875 85.515625 C 41.058594 85.511719 40.824219 85.496094 40.589844 85.488281 C 40.113281 85.472656 39.644531 85.429688 39.171875 85.398438 C 39.054688 85.390625 38.9375 85.378906 38.820312 85.367188 L 38.464844 85.335938 C 38.230469 85.3125 37.992188 85.292969 37.757812 85.261719 L 37.054688 85.175781 C 36.9375 85.164062 36.820312 85.144531 36.703125 85.125 L 36.355469 85.074219 C 35.882812 85.011719 35.417969 84.921875 34.953125 84.839844 C 34.019531 84.664062 33.089844 84.472656 32.171875 84.234375 C 31.710938 84.121094 31.253906 83.988281 30.796875 83.859375 C 30.683594 83.832031 30.570312 83.792969 30.457031 83.757812 L 30.117188 83.65625 L 29.773438 83.550781 C 29.660156 83.515625 29.550781 83.476562 29.4375 83.4375 L 28.761719 83.210938 C 28.535156 83.132812 28.3125 83.050781 28.089844 82.96875 L 27.753906 82.847656 C 27.644531 82.808594 27.535156 82.761719 27.421875 82.71875 L 26.757812 82.460938 C 24.992188 81.742188 23.28125 80.914062 21.621094 79.96875 C 14.992188 76.199219 9.390625 70.589844 5.609375 63.90625 L 5.429688 63.597656 L 4.914062 62.648438 L 4.585938 62.007812 C 4.53125 61.898438 4.476562 61.792969 4.421875 61.6875 L 4.265625 61.363281 C 3.839844 60.5 3.453125 59.621094 3.085938 58.734375 L 2.816406 58.0625 L 2.75 57.894531 L 2.6875 57.726562 L 2.5625 57.386719 L 2.433594 57.050781 L 2.367188 56.882812 L 2.308594 56.710938 L 2.074219 56.027344 C 1.773438 55.113281 1.492188 54.191406 1.253906 53.257812 C 0.765625 51.386719 0.421875 49.492188 0.21875 47.570312 C 0.121094 46.613281 0.046875 45.648438 0.0234375 44.6875 L 0.0117188 44.324219 L 0.0078125 44.144531 C 0.0078125 44.082031 0.0078125 44.023438 0.0078125 43.960938 L 0.00390625 43.238281 C 0 43 0.0117188 42.757812 0.0195312 42.515625 L 0.0429688 41.796875 C 0.203125 37.925781 0.90625 34.160156 2.152344 30.496094 C 2.769531 28.683594 3.519531 26.925781 4.398438 25.222656 L 4.738281 24.59375 L 4.90625 24.277344 C 4.960938 24.175781 5.015625 24.070312 5.078125 23.96875 L 5.441406 23.351562 C 5.5625 23.148438 5.679688 22.941406 5.804688 22.742188 C 6.0625 22.339844 6.320312 21.941406 6.578125 21.546875 C 6.851562 21.15625 7.125 20.769531 7.402344 20.386719 L 7.566406 20.488281 C 7.355469 20.910156 7.136719 21.328125 6.921875 21.746094 L 6.3125 23.015625 L 5.742188 24.296875 C 5.691406 24.402344 5.648438 24.511719 5.605469 24.621094 L 5.46875 24.941406 L 5.203125 25.589844 C 4.519531 27.324219 3.9375 29.089844 3.464844 30.890625 C 2.523438 34.480469 2.027344 38.132812 1.984375 41.847656 L 1.980469 42.539062 C 1.980469 42.769531 1.976562 42.996094 1.984375 43.226562 L 2 43.917969 C 2 43.976562 2 44.035156 2.003906 44.089844 L 2.011719 44.261719 L 2.027344 44.609375 L 2.050781 45.125 L 2.109375 45.984375 C 2.117188 46.101562 2.125 46.214844 2.136719 46.328125 L 2.199219 47.015625 C 2.207031 47.128906 2.21875 47.246094 2.230469 47.359375 C 2.425781 49.1875 2.710938 51.007812 3.121094 52.804688 C 3.316406 53.703125 3.558594 54.59375 3.8125 55.480469 L 4.015625 56.140625 L 4.066406 56.304688 L 4.121094 56.46875 L 4.226562 56.796875 L 4.335938 57.128906 L 4.390625 57.292969 L 4.449219 57.453125 L 4.683594 58.105469 C 5.007812 58.96875 5.347656 59.828125 5.734375 60.671875 L 5.875 60.984375 C 5.921875 61.089844 5.976562 61.195312 6.023438 61.300781 L 6.324219 61.925781 L 6.640625 62.542969 L 6.796875 62.851562 L 6.964844 63.15625 L 7.296875 63.765625 L 7.640625 64.367188 C 7.699219 64.464844 7.757812 64.566406 7.816406 64.664062 L 7.996094 64.960938 L 8.179688 65.257812 C 8.238281 65.355469 8.296875 65.457031 8.359375 65.554688 C 8.609375 65.941406 8.855469 66.335938 9.121094 66.714844 L 9.414062 67.148438 L 9.511719 67.289062 L 9.914062 67.855469 C 9.980469 67.949219 10.050781 68.042969 10.121094 68.132812 L 10.328125 68.414062 C 10.46875 68.597656 10.605469 68.785156 10.75 68.964844 L 11.179688 69.511719 C 11.324219 69.691406 11.472656 69.871094 11.621094 70.050781 L 11.84375 70.316406 L 12.070312 70.582031 L 12.527344 71.105469 L 12.992188 71.621094 C 13.070312 71.707031 13.148438 71.796875 13.226562 71.878906 L 13.46875 72.128906 C 14.101562 72.808594 14.765625 73.457031 15.445312 74.089844 L 15.960938 74.558594 C 16.046875 74.636719 16.136719 74.714844 16.222656 74.789062 L 16.484375 75.019531 L 16.75 75.246094 C 16.835938 75.324219 16.925781 75.394531 17.015625 75.46875 L 17.550781 75.914062 C 21.953125 79.492188 26.878906 82.070312 32.324219 83.648438 C 33.222656 83.914062 34.132812 84.136719 35.046875 84.34375 C 35.503906 84.4375 35.960938 84.539062 36.421875 84.621094 L 36.769531 84.683594 C 36.886719 84.703125 37 84.726562 37.117188 84.746094 L 37.808594 84.855469 C 38.042969 84.894531 38.277344 84.921875 38.507812 84.953125 L 38.855469 85 C 38.972656 85.015625 39.089844 85.03125 39.207031 85.042969 C 39.671875 85.089844 40.136719 85.148438 40.605469 85.183594 C 40.839844 85.203125 41.074219 85.222656 41.308594 85.238281 L 42.011719 85.277344 C 42.128906 85.285156 42.246094 85.292969 42.363281 85.296875 L 42.714844 85.308594 L 43.421875 85.332031 Z M 43.421875 85.527344 " fill-opacity="1" fill-rule="nonzero"/></g></g></g></g></svg>